<svg width="40" height="40" viewBox="0 0 40 40" fill="none" xmlns="http://www.w3.org/2000/svg">
<g clip-path="url(#clip0_2114_675)">
<path d="M31.7676 7.85156C32.4202 7.85156 32.9492 7.32252 32.9492 6.66992C32.9492 6.01732 32.4202 5.48828 31.7676 5.48828C31.115 5.48828 30.5859 6.01732 30.5859 6.66992C30.5859 7.32252 31.115 7.85156 31.7676 7.85156Z" fill="#111111"/>
<path d="M32.9492 26.1719V28.2415H22.5488V26.1719H17.4512V28.2415H7.05078V26.1719H4.70703V30.5852H17.4512V40H22.5488V30.5852H35.293V26.1719H32.9492Z" fill="#111111"/>
<path d="M10.5859 5.01266L20 14.4267L24.707 9.71977L31.8566 16.8693L34.7254 14.5876L40 18.769V0H0V15.5987L10.5859 5.01266ZM31.7676 3.14453C33.7115 3.14453 35.293 4.72602 35.293 6.66992C35.293 8.61383 33.7115 10.1953 31.7676 10.1953C29.8237 10.1953 28.2422 8.61383 28.2422 6.66992C28.2422 4.72602 29.8237 3.14453 31.7676 3.14453Z" fill="#111111"/>
<path d="M34.7278 17.5813L31.6784 20.0066L24.707 13.0352L20 17.7422L10.5859 8.32812L0 18.9142V23.8291H40V21.7609L34.7278 17.5813Z" fill="#111111"/>
</g>
<defs>
<clipPath id="clip0_2114_675">
<rect width="40" height="40" fill="white"/>
</clipPath>
</defs>
</svg>
