<svg width="40" height="41" viewBox="0 0 40 41" fill="none" xmlns="http://www.w3.org/2000/svg">
<g clip-path="url(#clip0_2114_713)">
<path d="M2.93397 22.2319C2.08667 25.6049 3.84291 29.0323 6.92772 30.3842L5.47594 36.1623L0.929593 35.02L0.358398 37.2932L11.7244 40.149L12.2956 37.8758L7.74923 36.7334L9.20117 30.9548C12.6211 31.2259 15.7355 28.9956 16.5737 25.6585L18.0011 19.9762L4.36215 16.5488L2.93397 22.2319Z" fill="black"/>
<path d="M4.93262 14.274L18.5722 17.7015L19.9996 12.0185L6.3608 8.5918L4.93262 14.274Z" fill="black"/>
<path d="M20.0068 12.0137L33.6477 8.58236L35.0775 14.2663L21.4366 17.6976L20.0068 12.0137Z" fill="black"/>
<path d="M39.0704 35.02L34.524 36.1623L33.0723 30.3842C36.157 29.0322 37.9133 25.6049 37.066 22.2319L35.6378 16.5488L21.999 19.9755L23.4264 25.6586C24.264 28.9931 27.3759 31.2261 30.799 30.9549L32.2509 36.7335L27.7046 37.8758L28.2758 40.149L39.6417 37.2933L39.0704 35.02Z" fill="black"/>
<path d="M18.8281 0.148438H21.172V4.83612H18.8281V0.148438Z" fill="black"/>
<path d="M10.8828 4.56641L12.5399 2.90931L15.8541 6.2235L14.197 7.8806L10.8828 4.56641Z" fill="black"/>
<path d="M24.1406 6.22656L27.4548 2.91237L29.1119 4.56947L25.7977 7.88366L24.1406 6.22656Z" fill="black"/>
</g>
<defs>
<clipPath id="clip0_2114_713">
<rect width="40" height="40" fill="white" transform="translate(0 0.148438)"/>
</clipPath>
</defs>
</svg>
