<svg width="40" height="40" viewBox="0 0 40 40" fill="none" xmlns="http://www.w3.org/2000/svg">
<g clip-path="url(#clip0_2114_681)">
<path d="M4.76562 0H2.42188V2.42188H0V4.76562H4.76562V0Z" fill="black"/>
<path d="M2.42188 40H4.76562V35.2344H0V37.5781H2.42188V40Z" fill="black"/>
<path d="M35.2344 40H37.5781V37.5781H40V35.2344H35.2344V40Z" fill="black"/>
<path d="M40 2.42188H37.5781V0H35.2344V4.76562H40V2.42188Z" fill="black"/>
<path d="M2.42188 7.10938H4.76562V9.45312H2.42188V7.10938Z" fill="black"/>
<path d="M2.42188 11.7969H4.76562V14.1406H2.42188V11.7969Z" fill="black"/>
<path d="M2.42188 16.4844H4.76562V18.8281H2.42188V16.4844Z" fill="black"/>
<path d="M2.42188 21.1719H4.76562V23.5156H2.42188V21.1719Z" fill="black"/>
<path d="M2.42188 25.8594H4.76562V28.2031H2.42188V25.8594Z" fill="black"/>
<path d="M2.42188 30.5469H4.76562V32.8906H2.42188V30.5469Z" fill="black"/>
<path d="M35.2344 7.10938H37.5781V9.45312H35.2344V7.10938Z" fill="black"/>
<path d="M35.2344 11.7969H37.5781V14.1406H35.2344V11.7969Z" fill="black"/>
<path d="M35.2344 16.4844H37.5781V18.8281H35.2344V16.4844Z" fill="black"/>
<path d="M35.2344 21.1719H37.5781V23.5156H35.2344V21.1719Z" fill="black"/>
<path d="M35.2344 25.8594H37.5781V28.2031H35.2344V25.8594Z" fill="black"/>
<path d="M35.2344 30.5469H37.5781V32.8906H35.2344V30.5469Z" fill="black"/>
<path d="M7.10938 35.2344H9.45312V37.5781H7.10938V35.2344Z" fill="black"/>
<path d="M11.7969 35.2344H14.1406V37.5781H11.7969V35.2344Z" fill="black"/>
<path d="M16.4844 35.2344H18.8281V37.5781H16.4844V35.2344Z" fill="black"/>
<path d="M21.1719 35.2344H23.5156V37.5781H21.1719V35.2344Z" fill="black"/>
<path d="M25.8594 35.2344H28.2031V37.5781H25.8594V35.2344Z" fill="black"/>
<path d="M30.5469 35.2344H32.8906V37.5781H30.5469V35.2344Z" fill="black"/>
<path d="M7.10938 2.42188H9.45312V4.76562H7.10938V2.42188Z" fill="black"/>
<path d="M11.7969 2.42188H14.1406V4.76562H11.7969V2.42188Z" fill="black"/>
<path d="M16.4844 2.42188H18.8281V4.76562H16.4844V2.42188Z" fill="black"/>
<path d="M21.1719 2.42188H23.5156V4.76562H21.1719V2.42188Z" fill="black"/>
<path d="M25.8594 2.42188H28.2031V4.76562H25.8594V2.42188Z" fill="black"/>
<path d="M30.5469 2.42188H32.8906V4.76562H30.5469V2.42188Z" fill="black"/>
<path d="M30.5469 29.3755C30.5469 25.8235 28.7698 22.6915 26.0712 20.7793C24.5685 22.4468 22.4155 23.5161 20 23.5161C17.5845 23.5161 15.4315 22.4468 13.9288 20.7793C11.2302 22.6915 9.45312 25.8235 9.45312 29.3755V32.8911H30.5469V29.3755Z" fill="black"/>
<path d="M15.7524 16.4853H14.2598C14.8042 19.1565 17.1711 21.1728 20.0004 21.1728C23.231 21.1728 25.8598 18.544 25.8598 15.3134V12.9697C25.8598 11.933 25.5662 10.9726 25.092 10.127C23.5859 13.8507 19.9577 16.4853 15.7524 16.4853Z" fill="black"/>
<path d="M14.1406 12.9688V14.1406H15.752C19.3954 14.1406 22.4905 11.5775 23.2941 8.12836C22.3547 7.48657 21.221 7.10938 20 7.10938C16.7694 7.10938 14.1406 9.73816 14.1406 12.9688Z" fill="black"/>
</g>
<defs>
<clipPath id="clip0_2114_681">
<rect width="40" height="40" fill="white"/>
</clipPath>
</defs>
</svg>
