<svg width="85" height="19" viewBox="0 0 85 19" fill="none" xmlns="http://www.w3.org/2000/svg">
<path d="M1.3951 15.375V6.219H5.3431C6.2391 6.219 6.9471 6.443 7.4671 6.891C7.9871 7.331 8.2471 8.007 8.2471 8.919C8.2471 9.495 8.1231 9.995 7.8751 10.419C7.6351 10.835 7.2951 11.155 6.8551 11.379C6.4231 11.603 5.9191 11.715 5.3431 11.715H3.1231V15.375H1.3951ZM5.1031 10.203C5.5671 10.203 5.9191 10.099 6.1591 9.891C6.4071 9.683 6.5311 9.379 6.5311 8.979C6.5311 8.587 6.4071 8.287 6.1591 8.079C5.9111 7.871 5.5591 7.767 5.1031 7.767H3.1231V10.203H5.1031ZM9.31529 15.375V6.219H10.9353V9.495C11.1993 9.127 11.4753 8.871 11.7633 8.727C12.0513 8.575 12.3833 8.499 12.7593 8.499C13.8153 8.499 14.5153 8.875 14.8593 9.627C14.9873 9.891 15.0673 10.159 15.0993 10.431C15.1313 10.703 15.1473 11.059 15.1473 11.499V15.375H13.5273V11.475C13.5273 11.131 13.4993 10.855 13.4433 10.647C13.3953 10.431 13.3153 10.259 13.2033 10.131C13.0113 9.931 12.7273 9.831 12.3513 9.831C11.8873 9.831 11.5433 9.967 11.3193 10.239C11.1833 10.399 11.0833 10.611 11.0193 10.875C10.9633 11.139 10.9353 11.495 10.9353 11.943V15.375H9.31529ZM19.7369 15.507C19.0649 15.507 18.4689 15.359 17.9489 15.063C17.4289 14.767 17.0209 14.351 16.7249 13.815C16.4369 13.279 16.2929 12.663 16.2929 11.967C16.2929 11.295 16.4369 10.695 16.7249 10.167C17.0209 9.639 17.4289 9.231 17.9489 8.943C18.4689 8.647 19.0649 8.499 19.7369 8.499C20.4089 8.499 21.0049 8.647 21.5249 8.943C22.0529 9.239 22.4609 9.651 22.7489 10.179C23.0449 10.699 23.1929 11.295 23.1929 11.967C23.1929 12.663 23.0489 13.279 22.7609 13.815C22.4729 14.351 22.0649 14.767 21.5369 15.063C21.0169 15.359 20.4169 15.507 19.7369 15.507ZM19.7369 14.115C20.2649 14.115 20.6929 13.915 21.0209 13.515C21.3489 13.115 21.5129 12.599 21.5129 11.967C21.5129 11.359 21.3489 10.863 21.0209 10.479C20.6929 10.087 20.2649 9.891 19.7369 9.891C19.3929 9.891 19.0849 9.979 18.8129 10.155C18.5409 10.331 18.3289 10.579 18.1769 10.899C18.0249 11.211 17.9489 11.567 17.9489 11.967C17.9489 12.607 18.1129 13.127 18.4409 13.527C18.7769 13.919 19.2089 14.115 19.7369 14.115ZM26.4387 15.375C25.3907 15.375 24.8667 14.883 24.8667 13.899V9.939H23.8707V8.643H24.8667V6.219H26.4867V8.643H27.7827V9.939H26.4867V13.407C26.4867 13.615 26.5187 13.771 26.5827 13.875C26.6547 13.979 26.8067 14.031 27.0387 14.031H27.7707V15.375H26.4387ZM31.983 15.507C31.311 15.507 30.715 15.359 30.195 15.063C29.675 14.767 29.267 14.351 28.971 13.815C28.683 13.279 28.539 12.663 28.539 11.967C28.539 11.295 28.683 10.695 28.971 10.167C29.267 9.639 29.675 9.231 30.195 8.943C30.715 8.647 31.311 8.499 31.983 8.499C32.655 8.499 33.251 8.647 33.771 8.943C34.299 9.239 34.707 9.651 34.995 10.179C35.291 10.699 35.439 11.295 35.439 11.967C35.439 12.663 35.295 13.279 35.007 13.815C34.719 14.351 34.311 14.767 33.783 15.063C33.263 15.359 32.663 15.507 31.983 15.507ZM31.983 14.115C32.511 14.115 32.939 13.915 33.267 13.515C33.595 13.115 33.759 12.599 33.759 11.967C33.759 11.359 33.595 10.863 33.267 10.479C32.939 10.087 32.511 9.891 31.983 9.891C31.639 9.891 31.331 9.979 31.059 10.155C30.787 10.331 30.575 10.579 30.423 10.899C30.271 11.211 30.195 11.567 30.195 11.967C30.195 12.607 30.359 13.127 30.687 13.527C31.023 13.919 31.455 14.115 31.983 14.115ZM39.7391 17.931C38.9391 17.931 38.2511 17.763 37.6751 17.427C37.1071 17.099 36.7551 16.535 36.6191 15.735H38.2511C38.3551 16.063 38.5271 16.299 38.7671 16.443C39.0071 16.595 39.3271 16.671 39.7271 16.671C40.2551 16.671 40.6471 16.551 40.9031 16.311C41.1591 16.071 41.2871 15.743 41.2871 15.327V14.379C41.0231 14.747 40.7391 15.003 40.4351 15.147C40.1391 15.291 39.7831 15.363 39.3671 15.363C38.7911 15.363 38.2791 15.219 37.8311 14.931C37.3831 14.635 37.0351 14.227 36.7871 13.707C36.5391 13.187 36.4151 12.603 36.4151 11.955C36.4151 11.291 36.5391 10.699 36.7871 10.179C37.0351 9.651 37.3831 9.239 37.8311 8.943C38.2791 8.647 38.7911 8.499 39.3671 8.499C39.7831 8.499 40.1391 8.575 40.4351 8.727C40.7391 8.871 41.0231 9.127 41.2871 9.495V8.643H42.9071V14.943C42.9071 16.023 42.6231 16.791 42.0551 17.247C41.4951 17.703 40.7231 17.931 39.7391 17.931ZM39.7511 13.971C40.0871 13.971 40.3871 13.883 40.6511 13.707C40.9151 13.531 41.1191 13.287 41.2631 12.975C41.4151 12.663 41.4911 12.315 41.4911 11.931C41.4911 11.547 41.4151 11.199 41.2631 10.887C41.1191 10.575 40.9151 10.331 40.6511 10.155C40.3871 9.979 40.0871 9.891 39.7511 9.891C39.2391 9.891 38.8271 10.087 38.5151 10.479C38.2031 10.863 38.0471 11.347 38.0471 11.931C38.0471 12.515 38.2031 13.003 38.5151 13.395C38.8271 13.779 39.2391 13.971 39.7511 13.971ZM44.3658 15.375V8.643H45.9858V9.447C46.2338 9.103 46.5098 8.859 46.8138 8.715C47.1258 8.571 47.4898 8.499 47.9058 8.499H48.0978V10.059H47.7258C47.2138 10.059 46.8138 10.195 46.5258 10.467C46.3418 10.651 46.2058 10.887 46.1178 11.175C46.0298 11.455 45.9858 11.815 45.9858 12.255V15.375H44.3658ZM50.927 15.507C50.271 15.507 49.739 15.335 49.331 14.991C48.923 14.639 48.719 14.151 48.719 13.527C48.719 12.855 48.975 12.343 49.487 11.991C49.855 11.735 50.379 11.543 51.059 11.415L53.063 11.043C53.047 10.627 52.939 10.311 52.739 10.095C52.539 9.879 52.239 9.771 51.839 9.771C51.527 9.771 51.251 9.863 51.011 10.047C50.779 10.231 50.635 10.479 50.579 10.791H48.971C49.083 10.047 49.411 9.479 49.955 9.087C50.499 8.695 51.131 8.499 51.851 8.499C52.259 8.499 52.639 8.559 52.991 8.679C53.343 8.791 53.643 8.959 53.891 9.183C54.139 9.399 54.319 9.651 54.431 9.939C54.543 10.227 54.611 10.515 54.635 10.803C54.667 11.091 54.683 11.447 54.683 11.871V15.375H53.063V14.463C52.895 14.759 52.691 14.983 52.451 15.135C52.075 15.383 51.567 15.507 50.927 15.507ZM51.323 14.235C51.643 14.235 51.931 14.171 52.187 14.043C52.523 13.875 52.755 13.651 52.883 13.371C53.011 13.091 53.083 12.711 53.099 12.231L51.491 12.555C51.059 12.635 50.747 12.763 50.555 12.939C50.411 13.083 50.339 13.259 50.339 13.467C50.339 13.715 50.427 13.907 50.603 14.043C50.787 14.171 51.027 14.235 51.323 14.235ZM59.6128 8.511C60.1968 8.511 60.7128 8.659 61.1608 8.955C61.6088 9.251 61.9568 9.667 62.2048 10.203C62.4528 10.731 62.5768 11.335 62.5768 12.015C62.5768 12.695 62.4528 13.303 62.2048 13.839C61.9568 14.367 61.6088 14.779 61.1608 15.075C60.7128 15.371 60.1968 15.519 59.6128 15.519C59.1968 15.519 58.8368 15.447 58.5328 15.303C58.2368 15.151 57.9608 14.891 57.7048 14.523V17.799H56.0848V8.643H57.7048V9.495C57.9688 9.127 58.2488 8.871 58.5448 8.727C58.8408 8.583 59.1968 8.511 59.6128 8.511ZM59.2408 9.903C58.7288 9.903 58.3088 10.099 57.9808 10.491C57.6608 10.883 57.5008 11.391 57.5008 12.015C57.5008 12.639 57.6608 13.147 57.9808 13.539C58.3088 13.931 58.7288 14.127 59.2408 14.127C59.7528 14.127 60.1648 13.931 60.4768 13.539C60.7888 13.139 60.9448 12.631 60.9448 12.015C60.9448 11.399 60.7888 10.895 60.4768 10.503C60.1648 10.103 59.7528 9.903 59.2408 9.903ZM63.7958 15.375V6.219H65.4158V9.495C65.6798 9.127 65.9558 8.871 66.2438 8.727C66.5318 8.575 66.8638 8.499 67.2398 8.499C68.2958 8.499 68.9958 8.875 69.3398 9.627C69.4678 9.891 69.5478 10.159 69.5798 10.431C69.6118 10.703 69.6278 11.059 69.6278 11.499V15.375H68.0078V11.475C68.0078 11.131 67.9798 10.855 67.9238 10.647C67.8758 10.431 67.7958 10.259 67.6838 10.131C67.4918 9.931 67.2078 9.831 66.8318 9.831C66.3678 9.831 66.0238 9.967 65.7998 10.239C65.6638 10.399 65.5638 10.611 65.4998 10.875C65.4438 11.139 65.4158 11.495 65.4158 11.943V15.375H63.7958ZM71.1574 17.799V16.431H71.8894C72.1294 16.431 72.3094 16.395 72.4294 16.323C72.5574 16.259 72.6654 16.111 72.7534 15.879L72.9334 15.399L70.4494 8.643H72.2014L73.7734 13.587L75.1894 8.643H76.9294L74.3134 16.167C74.1054 16.767 73.8494 17.187 73.5454 17.427C73.2494 17.675 72.8254 17.799 72.2734 17.799H71.1574Z" fill="white"/>
<rect x="78.6738" y="0.833984" width="5.70508" height="10.041" fill="#FFF0E4"/>
<path d="M81.4404 4.83347C81.2924 5.02147 81.1104 5.17947 80.8944 5.30747C80.6784 5.43147 80.4444 5.51347 80.1924 5.55347V4.75547C80.4844 4.69547 80.7424 4.57747 80.9664 4.40147C81.1904 4.22547 81.3584 4.01747 81.4704 3.77747H82.3044V8.35547H81.4404V4.83347Z" fill="black"/>
</svg>
